<mxfile host="app.diagrams.net" modified="2022-01-20T12:26:19.457Z" agent="5.0 (Windows NT 10.0; Win64; x64) AppleWebKit/537.36 (KHTML, like Gecko) Chrome/97.0.4692.71 Safari/537.36 Edg/97.0.1072.62" etag="ezWSmtf7Hvk4ubJGQVPf" version="16.4.3" type="github">
  <diagram id="jMX4rpMtADMRPg1Q61Ab" name="Page-1">
    <mxGraphModel dx="1038" dy="571" grid="1" gridSize="10" guides="1" tooltips="1" connect="1" arrows="1" fold="1" page="1" pageScale="1" pageWidth="850" pageHeight="1100" math="0" shadow="0">
      <root>
        <mxCell id="0" />
        <mxCell id="1" parent="0" />
        <mxCell id="Xwj90LFqdcLAcU0Ns_iP-2" value="&lt;font style=&quot;font-size: 19px&quot;&gt;Techmarathon&lt;/font&gt;" style="rounded=1;whiteSpace=wrap;html=1;" vertex="1" parent="1">
          <mxGeometry x="60" y="210" width="220" height="60" as="geometry" />
        </mxCell>
        <mxCell id="Xwj90LFqdcLAcU0Ns_iP-3" value="&lt;font style=&quot;font-size: 19px&quot;&gt;Bamboozled&lt;br&gt;images&lt;br&gt;&lt;/font&gt;" style="rounded=1;whiteSpace=wrap;html=1;" vertex="1" parent="1">
          <mxGeometry x="370" y="80" width="220" height="60" as="geometry" />
        </mxCell>
        <mxCell id="Xwj90LFqdcLAcU0Ns_iP-4" value="&lt;font style=&quot;font-size: 19px&quot;&gt;TV Fandom&lt;br&gt;music and videos&lt;br&gt;&lt;/font&gt;" style="rounded=1;whiteSpace=wrap;html=1;" vertex="1" parent="1">
          <mxGeometry x="380" y="280" width="220" height="60" as="geometry" />
        </mxCell>
      </root>
    </mxGraphModel>
  </diagram>
</mxfile>
